<?xml version="1.0" encoding="utf-8" ?><svg xmlns="http://www.w3.org/2000/svg" xmlns:xlink="http://www.w3.org/1999/xlink" width="1024" height="1024" viewBox="0 0 1024 1024"><path fill="#9B5150" d="M211.618 670.928C201.546 673.113 189.053 678.268 178.88 677.722C136.036 675.425 94.8434 662.454 54.495 648.755C49.5602 647.079 25.0557 640.44 24.3729 636.139C27.6449 630.961 42.2456 629.443 48.009 627.427C88.3585 613.315 166.06 582.496 178.965 537.445C181.978 526.925 180.518 516.181 178.156 505.679C176.597 498.748 174.558 491.939 173.062 484.99C167.602 458.625 163.045 432.081 159.398 405.404C157.384 390.239 157.162 374.42 155.027 359.255C153.121 345.717 149.873 332.562 149.217 318.828C149.035 315.022 147.63 310.934 147.836 307.051L148.493 306.69C152.302 308.621 154.685 318.441 156.4 322.707C162.988 339.093 170.494 353.782 181.012 368.001C223.313 425.183 288.357 455.461 353.953 477.835C385.868 488.721 418.468 498.475 451.407 506.177C463.682 509.167 475.992 511.96 488.369 514.524C490.629 514.992 495.484 516.192 496.51 518.378L496.339 519.447C491.722 521.905 467.231 526.556 460.84 528.014C449.72 530.551 438.494 533.848 427.497 536.636L374.377 549.579C363.99 552.168 332.759 558.606 324.744 563.099C326.305 576.531 325.766 588.891 326.391 602.381C328.238 642.224 326.636 682.196 323.569 721.94C323.186 726.909 322.768 732.023 322.162 736.937C318.876 762.085 313.603 786.934 306.393 811.249C303.491 821.229 300.48 830.145 296.556 839.787C295.291 842.897 293.951 847.307 292.496 850.131C291.126 852.825 290.048 855.805 286.693 855.331C284.782 853.983 283.844 851.722 282.671 849.601C280.44 840.74 278.442 831.822 275.892 823.045C268.717 798.357 232.919 684.038 215.712 673.046C214.434 672.23 212.983 671.584 211.618 670.928Z"/><path fill="#D54B44" d="M282.671 849.601C285.907 847.837 289.252 848.614 292.496 850.131C291.126 852.825 290.048 855.805 286.693 855.331C284.782 853.983 283.844 851.722 282.671 849.601Z"/><path fill="#007F51" d="M867.555 410.93C868.859 410.916 868.789 410.889 870.009 411.329C872.088 416.189 854.324 441.018 851.127 446.898C831.258 483.447 809.984 519.446 791.205 556.538C789.555 559.799 787.937 564.704 786.974 568.345C783.473 595.685 790.292 622.472 791.408 649.883C792.591 675.198 790.457 700.559 785.062 725.321C783.929 730.532 782.914 735.949 781.268 741.023C778.587 749.286 767.567 782.638 760.477 785.769C759.597 786.158 758.491 786.251 757.607 785.848C756.194 785.204 755.36 783.855 754.95 782.395C752.971 775.341 752.642 767.284 751.104 760.01C747.823 744.49 743.267 728.809 738.28 713.763C736.773 709.216 735.555 704.562 733.756 700.116C731.155 693.692 719.561 667.358 713.62 665.722C711.693 665.192 708.938 665.941 707.27 666.926C702.756 669.588 698.509 674.199 694.415 677.607C687.92 683.012 680.088 687.866 672.477 691.594C666.8 694.374 660.645 695.957 654.581 697.652C622.357 706.655 592.726 704.683 559.83 702.63C552.567 702.177 543.969 703.725 537.08 701.116C535.487 700.513 534.959 699.908 534.292 698.371C534.513 696.186 534.475 696.293 535.547 694.38C545.063 687.152 555.988 682.304 566.221 676.192C593.435 659.937 635.361 632.81 654.402 607.661C657.377 603.731 663.905 595.2 662.937 590.091C659.19 570.32 613.344 551.947 596.643 545.468C591.449 543.453 586.356 541.165 581.022 539.535C568.721 535.777 529.359 526.615 521.166 520.965L520.522 520.516C528.1 518.331 537.252 519.281 545.482 518.714C564.093 517.571 582.676 516.021 601.218 514.067C639.74 510.041 679.954 504.071 717.313 493.875C732.742 489.665 746.026 484.023 760.797 478.398C796.098 464.955 830.966 446.839 857.953 419.954C860.575 417.347 864.79 412.961 867.555 410.93Z"/><path fill="#C89B1D" d="M493.558 188.286C501.23 187.546 513.523 188.205 521.495 189.395C560.797 195.26 598.591 212.126 634.084 229.38C641.912 233.185 649.969 236.779 655.421 243.535C645.118 245.34 636.654 243.948 626.276 244.492C610.157 245.336 585.691 249.284 571.529 257.602C566.055 260.817 560.014 269.9 559.287 276.217C555.25 311.314 593.494 342.06 616.319 364.123C623.3 370.87 631.853 377.485 637.648 385.627C638.393 386.674 638.011 387.274 637.688 388.188C635.277 389.669 627.447 388.94 624.462 388.717C591.452 386.254 555.69 385.294 528.27 364.268C519.121 357.526 516.832 348.54 503.374 343.281L503.278 343.411C490.555 360.322 482.763 393.174 477.241 413.912C476.123 418.111 474.742 434.798 471.124 435.907C464.284 433.927 458.287 414.342 455.647 408.188C441.725 375.587 443.424 339.298 451.787 305.557C455.674 289.872 460.843 267.763 460.322 251.682C456.604 249.672 453.403 248.981 449.199 248.875C428.842 248.365 408.664 245.192 388.321 244.81C382.225 244.695 377.91 244.122 372.018 242.682C372.466 241.776 373.745 239.219 374.478 238.715C408.746 215.133 452.009 190.447 493.558 188.286Z"/><path fill="#9B5150" d="M288.905 308.717C321.851 304.263 352.159 327.392 356.558 360.346C360.957 393.299 337.778 423.568 304.817 427.913C271.934 432.247 241.751 409.134 237.362 376.258C232.974 343.382 256.036 313.161 288.905 308.717Z"/><path fill="#007F51" d="M714.095 376.801C740.992 374.268 764.848 394.02 767.38 420.917C769.911 447.814 750.158 471.67 723.261 474.2C696.365 476.731 672.511 456.979 669.98 430.083C667.449 403.188 687.199 379.333 714.095 376.801Z"/><path fill="#C89B1D" d="M521.726 101.594C542.288 101.176 559.334 117.43 559.894 137.989C560.455 158.547 544.319 175.705 523.764 176.408C503.008 177.117 485.645 160.788 485.079 140.027C484.513 119.266 500.962 102.016 521.726 101.594Z"/></svg>